<svg width="20" height="18" viewBox="0 0 20 18" fill="none" xmlns="http://www.w3.org/2000/svg">
<path d="M0 2.28572C0 1.49554 0.638393 0.857147 1.42857 0.857147H18.5714C19.3616 0.857147 20 1.49554 20 2.28572C20 3.0759 19.3616 3.71429 18.5714 3.71429H1.42857C0.638393 3.71429 0 3.0759 0 2.28572ZM0 9.42858C0 8.6384 0.638393 8.00001 1.42857 8.00001H18.5714C19.3616 8.00001 20 8.6384 20 9.42858C20 10.2188 19.3616 10.8571 18.5714 10.8571H1.42857C0.638393 10.8571 0 10.2188 0 9.42858ZM20 16.5714C20 17.3616 19.3616 18 18.5714 18H1.42857C0.638393 18 0 17.3616 0 16.5714C0 15.7813 0.638393 15.1429 1.42857 15.1429H18.5714C19.3616 15.1429 20 15.7813 20 16.5714Z" fill="#333333"/>
</svg>
